<?xml version="1.0" encoding="utf-8"?>
<!-- Generator: Adobe Illustrator 16.0.3, SVG Export Plug-In . SVG Version: 6.00 Build 0)  -->
<!DOCTYPE svg PUBLIC "-//W3C//DTD SVG 1.1//EN" "http://www.w3.org/Graphics/SVG/1.1/DTD/svg11.dtd">
<svg version="1.1" id="Ebene_1" xmlns="http://www.w3.org/2000/svg" xmlns:xlink="http://www.w3.org/1999/xlink" x="0px" y="0px"
	 width="1303.939px" height="921.26px" viewBox="0 0 1303.939 921.26" enable-background="new 0 0 1303.939 921.26"
	 xml:space="preserve">
<path d="M934.28,810.543l152.855-382.166c0.498-1.179,0.811-2.396,0.995-3.63c0.056-0.359,0.064-0.709,0.102-1.068
	c0.064-0.802,0.073-1.604,0.019-2.396c-0.027-0.424-0.064-0.838-0.129-1.262c-0.129-0.82-0.332-1.622-0.581-2.414
	c-0.11-0.313-0.175-0.636-0.285-0.949c-0.433-1.087-0.977-2.109-1.64-3.086c-0.037-0.055-0.056-0.11-0.093-0.166
	c0,0-268.031-376.556-268.067-376.556c-3.713-9.213-10.079-10.354-16.141-8.991c0,0.037-423.402,112.697-424.148,113.084
	c-0.497,0.249-0.939,0.488-1.4,0.783c-0.47,0.305-0.93,0.563-1.354,0.912c-0.405,0.332-0.774,0.673-1.142,1.041
	c-0.442,0.442-0.857,0.903-1.253,1.4c-0.276,0.359-0.544,0.7-0.783,1.078c-0.424,0.645-0.774,1.336-1.105,2.055
	c-0.102,0.212-0.249,0.387-0.332,0.607c0,0-150.819,383.373-150.819,383.853v0.019c0,1.714-0.083,13.672,0.212,14.067
	l267.617,344.174c0.019,0.037,0,0.055,0.019,0.092c0.018,0.019,0,0.037,0.018,0.074c0.056,0.073,0.129,0.129,0.193,0.193
	c0.222,0.267,0.479,0.47,0.719,0.719c0.249,0.267,0.488,0.524,0.756,0.755c0.276,0.249,0.507,0.571,0.792,0.811
	c0.239,0.185,0.525,0.305,0.774,0.488c0.368,0.249,0.746,0.488,1.133,0.7c0.046,0.037,0.092,0.074,0.147,0.093
	c0.802,0.47,1.621,0.829,2.478,1.133c0.388,0.129,0.756,0.285,1.152,0.396c0.193,0.055,0.377,0.166,0.571,0.193
	c1.133,0.249,2.294,0.396,3.454,0.396c0.912,0,1.861-0.111,2.801-0.249l420.73-76.492c0.525-0.093,0.995-0.193,1.502-0.341
	c0.129-0.047,0.267,0.027,0.387,0.027c0.036,0,0.036,0,0.036,0c0.194,0,0.359-0.249,0.553-0.322
	c0.378-0.129,0.737-0.313,1.106-0.479c0.193-0.092,0.404-0.175,0.589-0.276c0.157-0.092,0.239-0.138,0.304-0.156
	c0.129-0.074,0.213-0.193,0.342-0.258c1.289-0.719,2.478-1.604,3.5-2.626c0.129-0.147,0.222-0.313,0.351-0.442
	c1.004-1.097,1.852-2.321,2.497-3.666c0.055-0.093,0.146-0.166,0.193-0.268c0.036-0.074,0.073-0.156,0.101-0.239
	c0.019-0.037,0.028-0.056,0.046-0.093C934.124,810.902,934.198,810.727,934.28,810.543z M906.339,778.105l-265.378-165.9
	l298.553-232.176L906.339,778.105z M622.646,586.926L521.731,216.883l403.678,134.578L622.646,586.926z M971.353,373.498
	l82.231,54.833L943.936,702.406L971.353,373.498z M1012.44,363.4l-42.359-28.245l-56.465-112.92L1012.44,363.4z M927.205,319.171
	L539.641,189.982L798.026,60.794L927.205,319.171z M497.824,176.025l-59.743-19.918l219.085-59.762L497.824,176.025z
	 M393.28,174.072l79.874,26.634L286.755,440.344L393.28,174.072z M492.149,227.082l99.911,366.265l-332.999-66.588L492.149,227.082z
	 M591.83,625.139l-96.76,225.764L269.297,560.633L591.83,625.139z M620.933,636.499l256.35,160.234l-352.502,64.11L620.933,636.499z
	"/>
</svg>
